<svg xmlns:xlink="http://www.w3.org/1999/xlink" width="340" height="84" viewBox="0 0 340 84" fill="none" xmlns="http://www.w3.org/2000/svg"><path d="M75.2783 4.42309C75.3087 4.22648 75.3277 4.02488 75.3277 3.81949C75.3277 1.70921 73.588 0 71.438 0C69.2881 0 67.5484 1.70921 67.5484 3.81949L67.5598 4.09524L41.4072 21.5199L43.5914 24.6806L69.7401 7.25696C70.2529 7.50169 70.8303 7.63897 71.438 7.63897L71.6963 7.63074C71.8862 7.61853 72.0724 7.59284 72.2547 7.55467C72.4522 7.51345 72.6421 7.45766 72.8283 7.3885L100.686 29.6014H91.8587V33.4209H103.478L95.3191 57.2923H86.9966V61.1118H98.1185L104.975 41.0599H114.224V37.2404H106.278L107.584 33.4209H118.114V29.6014H106.855L75.2783 4.42309Z" fill="#141A20"></path> <path fill-rule="evenodd" clip-rule="evenodd" d="M82.0168 51.2808L84.501 53.7199L87.2511 51.0196L77.6751 41.6188L74.925 44.3192L77.8916 47.2308L71.7191 53.294L71.2405 52.7669C71.2861 52.6337 71.3203 52.4972 71.3545 52.3579L71.3772 52.2392C71.4076 52.0787 71.4266 51.9147 71.4342 51.748L71.438 51.5631C71.438 49.4528 69.6983 47.7436 67.5484 47.7436C65.3984 47.7436 63.6587 49.4528 63.6587 51.5631C63.6587 53.6724 65.3984 55.3826 67.5484 55.3826C67.8181 55.3826 68.0764 55.3559 68.3309 55.305L72.6535 60.0797L62.7509 69.8047L62.6939 69.8042C60.8099 69.8042 59.2791 71.3072 59.2791 73.1596C59.2791 75.0121 60.8099 76.5141 62.6939 76.5141C64.5818 76.5141 66.1126 75.0121 66.1126 73.1596C66.1126 72.8942 66.086 72.636 66.0252 72.3883L82.7385 55.9747L81.3634 54.6245L76.8926 59.0131L75.6012 57.5836L82.0168 51.2808ZM80.6417 49.9307L79.2667 48.5808L73.0106 54.7238L74.3059 56.154L80.6417 49.9307Z" fill="#141A20"></path> <path d="M12.121 41.0585V47.689L14.4646 43.5045L17.8756 45.3455L8.67573 61.7645L5.26849 59.9236L8.23131 54.6337V39.1497L30.5778 22.6728L30.5702 22.4395C30.5702 20.5928 32.0934 19.0974 33.9736 19.0974C35.8539 19.0974 37.377 20.5928 37.377 22.4395C37.377 24.2853 35.8539 25.7815 33.9736 25.7815C33.6431 25.7815 33.3241 25.7352 33.0202 25.6489L12.121 41.0585Z" fill="#141A20"></path> <path fill-rule="evenodd" clip-rule="evenodd" d="M5.13555 77.344L14.9128 59.8866L23.8203 58.3779L38.2849 44.1779L38.076 43.9192L37.8898 43.9241C36.0096 43.9241 34.4864 42.4278 34.4864 40.582C34.4864 38.7353 36.0096 37.24 37.8898 37.24C39.7701 37.24 41.2933 38.7353 41.2933 40.582C41.2933 40.926 41.2401 41.2579 41.1413 41.5702L53.9004 57.2923L64.6311 57.2914V61.1108L59.5944 61.1112L53.7751 66.8261L52.4 65.4759L56.8443 61.1114L54.098 61.1116L48.2787 66.8261L46.9036 65.4759L51.7239 60.7423L50.5046 59.2398L42.7785 66.8261L41.4034 65.4759L49.2853 57.7346L48.0584 56.2224L31.0336 72.9059L30.9576 72.9154L33.4228 77.344H41.9238V81.1635H0V77.344H5.13555ZM31.2083 77.344L27.896 71.3991L30.1219 71.1002L46.8353 54.7186L45.6198 53.2196L29.3433 69.2057L24.8155 69.9323L28.9444 77.344H31.2083ZM26.7299 77.344L21.7919 68.4819L28.4088 67.4201L44.4004 51.7166L43.1735 50.2045L27.5428 65.5553L19.9116 66.8472L14.0164 77.344H26.7299ZM11.7981 77.344L18.6581 65.1218L26.6008 63.7764L41.9542 48.7014L40.7235 47.1838L25.7005 61.9348L17.4198 63.3375L9.57217 77.344H11.7981Z" fill="#141A20"></path> <path d="M72.4104 81.1635H88.0032V77.344H77.4776L82.7233 72.1936L81.3483 70.8434L74.7275 77.344H72.4104V81.1635Z" fill="#141A20"></path> <path d="M58.7891 27.2006C58.7663 29.0578 57.2241 30.5564 55.3287 30.5564C53.418 30.5564 51.8683 29.0343 51.8683 27.157C51.8683 25.2807 53.418 23.7586 55.3287 23.7586C55.5794 23.7586 55.8263 23.7849 56.0618 23.8348C56.2631 23.8775 56.4606 23.9376 56.6467 24.0134L69.2805 15.8639L79.6086 24.0223L77.1699 26.9986L69.0488 20.5828L58.7891 27.157V27.2006Z" fill="#141A20"></path> <path d="M70.0136 71.1716L71.3886 72.5217L82.5714 61.5407L81.1963 60.1905L70.0136 71.1716Z" fill="#141A20"></path> <path d="M74.1387 75.2223L72.7637 73.8721L81.5154 65.2783L82.8904 66.6285L74.1387 75.2223Z" fill="#141A20"></path> <path d="M0.455818 44.8781H4.34546V37.2468L14.7761 29.5562L12.44 26.5026L0.455818 35.338V44.8781Z" fill="#141A20"></path> <path fill-rule="evenodd" clip-rule="evenodd" d="M270.651 37.0199C269.03 34.365 266.826 32.2203 264.101 30.6462C261.371 29.0713 258.37 28.2715 255.183 28.2715C251.995 28.2715 248.995 29.0713 246.266 30.6462C243.538 32.2212 241.349 34.3675 239.759 37.0242C238.166 39.6842 237.359 42.5845 237.359 45.6427C237.359 48.7629 238.167 51.6784 239.761 54.3096C241.352 56.9382 243.534 59.054 246.245 60.5958C248.959 62.1419 251.966 62.9256 255.183 62.9256C258.368 62.9256 261.368 62.1419 264.097 60.5967C266.822 59.0548 269.027 56.9407 270.65 54.3121C272.276 51.681 273.1 48.7646 273.1 45.6427C273.1 42.5828 272.276 39.6825 270.651 37.0199ZM255.229 56.3643C249.364 56.3643 244.609 51.5443 244.609 45.5985C244.609 39.6528 249.364 34.8328 255.229 34.8328C261.095 34.8328 265.85 39.6528 265.85 45.5985C265.85 51.5443 261.095 56.3643 255.229 56.3643ZM179.623 29.1834H187.343V62.0136H179.623V29.1834ZM340 55.9166V62.0136H314.34V29.1834H339.385V35.2805H321.962V42.4093H337.349V48.3187H321.962V55.9166H340ZM307.925 29.1834V62.0136H301.66L285.219 42.081V62.0136H277.682V29.1834H283.995L300.388 49.116V29.1834H307.925ZM233.913 55.8228V62.0136H206.2V57.0891L224.026 35.3743H206.2V29.1834H233.913V34.108L216.134 55.8228H233.913ZM168.095 44.9419C169.979 45.536 171.455 46.5365 172.523 47.9435C173.591 49.3193 174.124 51.0233 174.124 53.0557C174.124 55.9322 172.994 58.1522 170.733 59.7155C168.503 61.2476 165.237 62.0136 160.935 62.0136H143.882V29.1834H159.992C164.012 29.1834 167.09 29.9495 169.225 31.4815C171.392 33.0136 172.476 35.0929 172.476 37.7193C172.476 39.3139 172.083 40.7365 171.298 41.9872C170.544 43.2379 169.477 44.2228 168.095 44.9419ZM151.466 34.9053V42.6438H159.05C160.935 42.6438 162.363 42.3155 163.337 41.6589C164.31 41.0023 164.797 40.033 164.797 38.7511C164.797 37.4691 164.31 36.5155 163.337 35.8902C162.363 35.2336 160.935 34.9053 159.05 34.9053H151.466ZM160.369 56.2918C162.379 56.2918 163.887 55.9635 164.891 55.3069C165.928 54.6503 166.446 53.6341 166.446 52.2584C166.446 49.5381 164.42 48.178 160.369 48.178H151.466V56.2918H160.369ZM200.702 54.7175H193.37V62.0131H200.702V54.7175Z" fill="#141A20"></path> <path d="M143.882 76.4182C143.882 79.9738 145.464 81.3192 148.225 81.3192C150.708 81.3192 152.026 80.4818 152.318 78.3813H150.791C150.542 79.7542 149.723 80.1248 148.238 80.1248C146.476 80.1248 145.408 79.1913 145.408 76.9673V75.8142C145.408 73.549 146.49 72.7116 148.225 72.7116C149.779 72.7116 150.583 73.096 150.778 74.5237H152.304C152.054 72.3821 150.736 71.5172 148.225 71.5172C145.464 71.5172 143.882 72.8763 143.882 76.4182Z" fill="#141A20"></path> <path d="M153.517 82.8156V83.9001H154.322C155.696 83.9001 156.265 83.4745 156.834 82.0742L160.025 74.304H158.707L156.528 79.6306L154.336 74.304H152.865L155.835 81.3466L155.668 81.7585C155.335 82.6234 155.03 82.8156 154.142 82.8156H153.517Z" fill="#141A20"></path> <path d="M161.097 71.1328V81.1545H162.457V80.0974C162.956 80.9485 163.803 81.3192 164.954 81.3192C166.966 81.3192 168.118 80.3308 168.118 77.7361C168.118 75.1415 166.966 74.153 164.954 74.153C163.844 74.153 163.012 74.4962 162.512 75.2925V71.1328H161.097ZM166.675 78.2303C166.675 79.6443 165.912 80.3033 164.594 80.3033C163.275 80.3033 162.512 79.6443 162.512 78.2303V77.2419C162.512 75.7455 163.248 75.1689 164.607 75.1689C165.898 75.1689 166.675 75.7455 166.675 77.2419V78.2303Z" fill="#141A20"></path> <path d="M172.588 75.1277C173.837 75.1277 174.475 75.6494 174.53 76.9948H170.659C170.701 75.6494 171.395 75.1277 172.588 75.1277ZM169.258 77.7361C169.258 80.3033 170.437 81.3192 172.588 81.3192C174.489 81.3192 175.599 80.5916 175.876 79.1639H174.461C174.281 79.9326 173.698 80.3308 172.588 80.3308C171.353 80.3308 170.659 79.6718 170.659 78.2029V77.8322H175.946V77.4753C175.946 75.1415 174.766 74.153 172.588 74.153C170.437 74.153 169.258 75.1689 169.258 77.7361Z" fill="#141A20"></path> <path d="M177.451 74.304V81.1545H178.867V77.3654C178.867 76.075 179.505 75.567 180.837 75.567H181.683V74.304H180.962C179.893 74.304 179.158 74.7708 178.811 75.6769V74.304H177.451Z" fill="#141A20"></path> <path d="M182.304 79.054C182.387 80.6191 183.525 81.3055 185.578 81.3055C187.507 81.3055 188.714 80.6877 188.714 79.2188C188.714 76.1574 183.872 77.9558 183.872 76.1299C183.872 75.416 184.441 75.114 185.467 75.114C186.369 75.114 187.007 75.3474 187.077 76.226H188.52C188.437 74.7571 187.285 74.1393 185.467 74.1393C183.58 74.1393 182.47 74.8257 182.47 76.1711C182.47 79.205 187.327 77.3517 187.327 79.26C187.327 80.0287 186.73 80.3445 185.578 80.3445C184.468 80.3445 183.816 80.0287 183.747 79.054H182.304Z" fill="#141A20"></path> <path d="M193.088 75.1277C194.337 75.1277 194.975 75.6494 195.031 76.9948H191.16C191.201 75.6494 191.895 75.1277 193.088 75.1277ZM189.758 77.7361C189.758 80.3033 190.938 81.3192 193.088 81.3192C194.989 81.3192 196.099 80.5916 196.377 79.1639H194.961C194.781 79.9326 194.198 80.3308 193.088 80.3308C191.853 80.3308 191.16 79.6718 191.16 78.2029V77.8322H196.446V77.4753C196.446 75.1415 195.267 74.153 193.088 74.153C190.938 74.153 189.758 75.1689 189.758 77.7361Z" fill="#141A20"></path> <path d="M197.549 77.7498C197.549 80.468 198.784 81.3192 200.879 81.3192C202.78 81.3192 203.848 80.6053 204.07 79.1776H202.627C202.475 79.9052 201.961 80.3033 200.879 80.3033C199.769 80.3033 198.992 79.7816 198.992 78.2578V77.2007C198.992 75.7592 199.603 75.1689 200.879 75.1689C201.878 75.1689 202.447 75.4709 202.614 76.2809H204.057C203.862 74.7845 202.738 74.153 200.879 74.153C198.632 74.153 197.549 75.2238 197.549 77.7498Z" fill="#141A20"></path> <path d="M205.402 78.6422C205.402 80.5779 206.345 81.3192 208.052 81.3192C209.176 81.3192 210.064 80.9485 210.48 80.0974V81.1545H211.868V74.304H210.452V78.5873C210.452 79.8503 209.661 80.2896 208.538 80.2896C207.428 80.2896 206.831 79.9464 206.831 78.6147V74.304H205.402V78.6422Z" fill="#141A20"></path> <path d="M213.805 74.304V81.1545H215.22V77.3654C215.22 76.075 215.858 75.567 217.19 75.567H218.036V74.304H217.315C216.247 74.304 215.511 74.7708 215.164 75.6769V74.304H213.805Z" fill="#141A20"></path> <path d="M219.211 74.304V81.1545H220.626V74.304H219.211ZM219.03 72.1212C219.03 72.6567 219.35 72.9312 219.905 72.9312C220.473 72.9312 220.793 72.6567 220.793 72.1212C220.793 71.5858 220.473 71.325 219.905 71.325C219.35 71.325 219.03 71.5858 219.03 72.1212Z" fill="#141A20"></path> <path d="M222.779 79.2874C222.779 80.6053 223.293 81.1545 224.722 81.1545H226.151V80.0562H225.11C224.458 80.0562 224.208 79.7679 224.208 79.1639V75.4023H226.151V74.304H224.208V72.1624H222.779V74.304H221.877V75.4023H222.779V79.2874Z" fill="#141A20"></path> <path d="M227.186 82.8156V83.9001H227.991C229.364 83.9001 229.933 83.4745 230.502 82.0742L233.693 74.304H232.375L230.197 79.6306L228.005 74.304H226.534L229.503 81.3466L229.337 81.7585C229.004 82.6234 228.698 82.8156 227.81 82.8156H227.186Z" fill="#141A20"></path></svg>