<svg xmlns:xlink="http://www.w3.org/1999/xlink" xmlns="http://www.w3.org/2000/svg" width="340" height="58.05" viewBox="0 0 164 28" fill="none">
<path d="M36.6421 15.3996C34.0179 24.2426 25.4991 28 18.3211 28V25.1994C23.7164 25.1994 30.8994 22.6776 33.4863 15.401V15.3996H36.6421Z" fill="#16BA57"/>
<path fill-rule="evenodd" clip-rule="evenodd" d="M18.3211 7.69805C21.8179 7.69805 24.6525 10.5196 24.6525 14.0006C24.6525 17.4815 21.8179 20.3033 18.3211 20.3033C14.8242 20.3033 11.9896 17.4815 11.9896 14.0006C11.9896 10.5196 14.8242 7.69805 18.3211 7.69805ZM19.9071 10.8395C19.0306 10.8395 18.3211 11.5458 18.3211 12.4182C18.3211 13.2906 19.0307 13.9969 19.9071 13.9969C20.7834 13.9969 21.493 13.2905 21.4931 12.4182C21.4931 11.5458 20.7835 10.8395 19.9071 10.8395Z" fill="#16BA57"/>
<path d="M18.3211 2.80059C12.9245 2.80059 5.74268 5.32235 3.15577 12.6002H0C2.62425 3.75723 11.143 0 18.3211 0V2.80059Z" fill="#16BA57"/>
<path fill-rule="evenodd" clip-rule="evenodd" d="M83.7868 6.70059C85.1648 6.70059 86.4172 7.02765 87.5415 7.68047C88.6657 8.33328 89.5562 9.21649 90.2116 10.3301C90.867 11.4437 91.1953 12.6665 91.1953 14.0006C91.1953 15.3347 90.867 16.5575 90.2116 17.6711C89.5562 18.7847 88.6657 19.6679 87.5415 20.3207C86.4172 20.9735 85.166 21.3006 83.7868 21.3006C82.4076 21.3006 81.1564 20.9735 80.0321 20.3207C78.9079 19.6679 78.0174 18.7847 77.362 17.6711C76.7066 16.5575 76.3783 15.3347 76.3783 14.0006C76.3783 12.6665 76.7066 11.4437 77.362 10.3301C78.0174 9.21773 78.9079 8.33329 80.0321 7.68047C81.1564 7.02765 82.4088 6.70059 83.7868 6.70059ZM83.7856 9.66114C82.9822 9.66114 82.2559 9.85455 81.6068 10.241C80.9576 10.6275 80.4489 11.1503 80.0808 11.8106C79.7127 12.4708 79.5286 13.2004 79.5286 14.0006C79.5286 14.8008 79.7127 15.5304 80.0808 16.1906C80.4489 16.8497 80.9576 17.3737 81.6068 17.7602C82.2559 18.1466 82.9686 18.34 83.7856 18.34C84.6027 18.34 85.3315 18.1466 85.9745 17.7602C86.6174 17.3737 87.1261 16.8509 87.5004 16.1906C87.8747 15.5304 88.0626 14.8008 88.0626 14.0006C88.0626 13.2004 87.8747 12.4708 87.5004 11.8106C87.1261 11.1516 86.6174 10.6275 85.9745 10.241C85.3315 9.85454 84.589 9.66115 83.7856 9.66114Z" fill="#000504"/>
<path d="M142.024 6.70059C143.245 6.70059 144.34 6.96436 145.31 7.49083C146.278 8.01728 147.062 8.68008 147.659 9.48028C148.257 10.2805 148.656 11.1205 148.854 12L148.853 12.0037H145.587C145.464 11.6259 145.255 11.2653 144.959 10.9234C144.647 10.563 144.239 10.2632 143.735 10.0229C143.23 9.78257 142.66 9.66251 142.023 9.66251C141.238 9.66251 140.529 9.8557 139.892 10.2422C139.254 10.6287 138.753 11.1515 138.388 11.8117C138.023 12.472 137.841 13.2016 137.841 14.0018C137.841 14.802 138.023 15.5317 138.388 16.192C138.753 16.851 139.254 17.375 139.892 17.7615C140.529 18.148 141.24 18.3412 142.023 18.3412C142.952 18.3412 143.732 18.1046 144.362 17.6315C144.973 17.1731 145.411 16.6355 145.68 16.0211H148.933C148.721 16.8882 148.315 17.7243 147.718 18.5307C147.121 19.3371 146.334 19.9998 145.359 20.5201C144.383 21.0404 143.272 21.3006 142.024 21.3006C140.67 21.3006 139.435 20.9735 138.321 20.3207C137.206 19.6679 136.326 18.7847 135.682 17.6711C135.039 16.5575 134.717 15.3347 134.717 14.0006C134.717 12.6665 135.039 11.4437 135.682 10.3301C136.326 9.21769 137.206 8.33329 138.321 7.68047C139.435 7.02768 140.67 6.7006 142.024 6.70059Z" fill="#000504"/>
<path d="M75.6505 9.80001H68.5705V12.6008H74.6536V15.4004H68.5705V21.0006H65.4388V7.00059H75.6505V9.80001Z" fill="#000504"/>
<path d="M153.914 7.00059V12.6008H160.051V7.00059H163.19V21.0006H160.051V15.4004H153.914V21.0006H150.775V7.00059H153.914Z" fill="#000504"/>
<path d="M47.6568 20.9979H44.4531V6.99786H47.6568V20.9979Z" fill="#000504"/>
<path d="M59.7717 16.0022V6.99786H62.8401V20.9979H59.9518L53.2738 12.0172V20.9979H50.2256V6.99786H53.1137L59.7717 16.0022Z" fill="#000504"/>
<path d="M97.528 15.8818L100.235 6.99786H102.522L105.229 15.8818L108.871 6.99786H112.09L106.56 20.9979H104.021L101.378 12.5955L98.7354 20.9979H96.1954L90.6654 6.99786H93.8855L97.528 15.8818Z" fill="#000504"/>
<path fill-rule="evenodd" clip-rule="evenodd" d="M123.934 20.9979H120.619L119.575 18.1971H113.956L112.912 20.9979H109.718L115.288 6.99786H118.363L123.934 20.9979ZM115 15.3977H118.53L116.765 10.6631L115 15.3977Z" fill="#000504"/>
<path d="M134.287 9.79727H129.884V20.9979H126.716V9.79727H122.273V6.99786H134.287V9.79727Z" fill="#000504"/>
</svg>