<svg width="140" height="36" viewBox="0 0 140 36" fill="none" xmlns="http://www.w3.org/2000/svg" aria-hidden="true">
  <g clip-path="url(#clip_logo)">
    <path d="M58.2858 15.777C59.9187 14.1274 60.8416 11.9041 60.8416 9.46561C60.8416 7.02711 59.9187 4.8755 58.2858 3.15421L55.73 0.572266H48.4887L54.7361 6.88367C56.156 8.31808 56.156 10.6849 54.7361 12.1193C53.3163 13.5537 50.9734 13.5537 49.5536 12.1193L38.1945 0.64399H30.9531L45.9329 15.777C49.2696 19.2196 54.8071 19.2196 58.2858 15.777Z" fill="#0000FF"/>
    <g opacity="0.3">
      <mask id="mask_logo_l" style="mask-type:luminance" maskUnits="userSpaceOnUse" x="25" y="0" width="31" height="19">
        <path d="M55.6589 0.572266H25.6284V18.3589H55.6589V0.572266Z" fill="#fff"/>
      </mask>
      <g mask="url(#mask_logo_l)">
        <path d="M48.4176 0.572266L37.0586 12.0475C35.6387 13.4819 33.2959 13.4819 31.876 12.0475C31.1661 11.3303 30.8111 10.398 30.8111 9.46561C30.8111 8.46152 31.1661 7.52915 31.876 6.88367L38.1235 0.572266H30.8821L28.3263 3.15421C26.6934 4.80378 25.7705 7.02711 25.7705 9.46561C25.7705 11.8324 26.6934 14.0557 28.3263 15.777C29.9592 17.4266 32.16 18.3589 34.5738 18.3589C36.9876 18.3589 39.1174 17.4266 40.8212 15.777L55.801 0.64399H48.4176V0.572266Z" fill="#0000FF"/>
      </g>
    </g>
    <g opacity="0.3">
      <mask id="mask_logo_r" style="mask-type:luminance" maskUnits="userSpaceOnUse" x="84" y="0" width="32" height="19">
        <path d="M115.01 0.572266H84.9795V18.3589H115.01V0.572266Z" fill="#fff"/>
      </mask>
      <g mask="url(#mask_logo_r)">
        <path d="M92.2208 0.572266L103.58 12.0475C105 13.4819 107.343 13.4819 108.762 12.0475C109.472 11.3303 109.827 10.398 109.827 9.46561C109.827 8.46152 109.472 7.52915 108.762 6.88367L102.515 0.572266H109.756L112.312 3.15421C113.945 4.80378 114.868 7.02711 114.868 9.46561C114.868 11.8324 113.945 14.0557 112.312 15.777C110.679 17.4266 108.478 18.3589 106.065 18.3589C103.651 18.3589 101.521 17.4266 99.8172 15.777L84.8374 0.64399H92.2208V0.572266Z" fill="#0000FF"/>
      </g>
    </g>
    <path d="M82.424 15.777C80.7911 14.1274 79.8682 11.9041 79.8682 9.46561C79.8682 7.02711 80.7911 4.8755 82.424 3.15421L84.9797 0.572266H92.2211L85.9737 6.88367C84.5538 8.31808 84.5538 10.6849 85.9737 12.1193C87.3935 13.5537 89.7363 13.5537 91.1562 12.1193L102.515 0.64399H109.757L94.7769 15.777C91.4402 19.2196 85.8317 19.2196 82.424 15.777Z" fill="#0000FF"/>
    <path d="M79.3002 0.572266H64.4624V18.3589H69.503V5.66442H74.3306L79.3002 0.572266Z" fill="#0000FF"/>
    <path d="M28.0427 18.2872H35.0711L17.5355 0.572266L0 18.2872H7.09941L17.5355 7.74431L28.0427 18.2872Z" fill="#0000FF"/>
    <path d="M121.115 13.2662C119.057 13.2662 117.353 11.5449 117.353 9.46505C117.353 7.38516 119.057 5.66387 121.115 5.66387L130.984 5.59214L135.882 0.5H121.044C116.217 0.5 112.241 4.51634 112.241 9.39333C112.241 14.2703 116.217 18.2867 121.044 18.2867H139.006V13.1945H121.115V13.2662Z" fill="#0000FF"/>
    <path d="M5.04039 29.3322H3.12355V34.2809H2.34262V29.3322H0.425781V28.615H5.04039V29.3322ZM11.7138 33.5637V34.2809H7.66717V28.615H11.6428V29.3322H8.44811V31.0535H11.2879V31.7707H8.44811V33.6355H11.7138V33.5637ZM14.8376 28.615L16.3284 30.6949L17.8193 28.615H18.7422L16.8254 31.3404L18.8842 34.2809H17.9613L16.3284 31.9859L14.6956 34.2809H13.7727L15.8315 31.3404L13.9147 28.615H14.8376ZM26.1256 28.615V34.2809H25.3447V31.7707H22.15V34.2809H21.369V28.615H22.15V31.0535H25.3447V28.615H26.1256ZM29.5333 28.615H30.3143V32.99L33.651 28.615H34.3609V34.2809H33.58V29.906L30.2433 34.2809H29.5333V28.615ZM41.7443 28.615V34.2809H40.9634V32.0576C40.3954 32.2728 39.8275 32.4162 39.3305 32.4162C38.6206 32.4162 38.1236 32.2728 37.7686 31.9142C37.4137 31.5556 37.2007 31.1252 37.2007 30.4798V28.615H37.9816V30.3363C37.9816 30.7666 38.1236 31.0535 38.3366 31.3404C38.6206 31.5556 38.9755 31.699 39.4015 31.699C39.8985 31.699 40.4664 31.5556 40.9634 31.3404V28.615H41.7443ZM49.1277 33.5637V34.2809H45.081V28.615H49.0567V29.3322H45.862V31.0535H48.7017V31.7707H45.862V33.6355H49.1277V33.5637ZM54.5233 34.3527C53.9553 34.3527 53.4583 34.2092 53.0324 33.9941C52.6064 33.7072 52.2514 33.4203 51.9675 32.99C51.6835 32.5596 51.6125 32.0576 51.6125 31.4838C51.6125 30.9101 51.7545 30.408 51.9675 29.9777C52.2514 29.5474 52.6064 29.1888 53.0324 28.9736C53.4583 28.6867 54.0263 28.615 54.5233 28.615C54.9492 28.615 55.3752 28.6867 55.7301 28.8302C56.0851 28.9736 56.4401 29.1888 56.6531 29.4757L56.1561 29.9777C55.7302 29.5474 55.2332 29.3322 54.5942 29.3322C54.1683 29.3322 53.8133 29.4039 53.4583 29.6191C53.1034 29.8343 52.8904 30.0494 52.6774 30.408C52.4644 30.7666 52.3934 31.1252 52.3934 31.5556C52.3934 31.9859 52.4644 32.3445 52.6774 32.7031C52.8904 33.0617 53.1034 33.2769 53.4583 33.492C53.8133 33.7072 54.1683 33.7789 54.5942 33.7789C55.2332 33.7789 55.7302 33.5637 56.1561 33.0617L56.6531 33.5637C56.3691 33.8506 56.0851 34.0658 55.7301 34.2092C55.3752 34.2809 54.9492 34.3527 54.5233 34.3527ZM61.3387 31.7707H60.1318V34.2809H59.3508V28.615H60.1318V31.0535H61.3387L63.1135 28.615H63.9655L61.9776 31.3404L64.1074 34.2809H63.1845L61.3387 31.7707ZM66.5212 28.615H67.3022V32.99L70.6389 28.615H71.3488V34.2809H70.5679V29.906L67.2312 34.2809H66.5212V28.615ZM74.6856 28.615H75.4665V32.99L78.8032 28.615H79.5132V34.2809H78.7322V29.906L75.3955 34.2809H74.6856V28.615ZM77.0994 28.1847C76.6734 28.1847 76.3184 28.113 76.1054 27.8978C75.8925 27.6827 75.7505 27.3958 75.7505 27.1089H76.3184C76.3184 27.324 76.3894 27.4675 76.5314 27.6109C76.6734 27.7544 76.8864 27.7544 77.0994 27.7544C77.3123 27.7544 77.5253 27.6827 77.6673 27.6109C77.8093 27.4675 77.8803 27.324 77.8803 27.1089H78.4482C78.4482 27.4675 78.3063 27.7544 78.0933 27.8978C77.8803 28.113 77.5253 28.1847 77.0994 28.1847ZM88.6714 31.7707H87.4645V34.2809H86.6836V28.615H87.4645V31.0535H88.6714L90.4462 28.615H91.2982L89.3103 31.3404L91.4402 34.2809H90.5172L88.6714 31.7707ZM96.3387 34.3527C95.7708 34.3527 95.2738 34.2092 94.7769 33.9941C94.3509 33.7072 93.9959 33.4203 93.712 32.9182C93.428 32.4879 93.357 31.9859 93.357 31.4121C93.357 30.8383 93.499 30.3363 93.712 29.906C93.9959 29.4757 94.3509 29.1171 94.7769 28.8302C95.2028 28.5433 95.7708 28.4716 96.3387 28.4716C96.9067 28.4716 97.4037 28.615 97.8296 28.8302C98.2556 29.1171 98.6106 29.4039 98.8945 29.8343C99.1785 30.2646 99.2495 30.7666 99.2495 31.3404C99.2495 31.9142 99.1075 32.4162 98.8945 32.8465C98.6106 33.2768 98.2556 33.6355 97.8296 33.8506C97.4037 34.2092 96.9067 34.3527 96.3387 34.3527ZM96.3387 33.6355C96.7647 33.6355 97.1197 33.5637 97.4747 33.3486C97.8296 33.1334 98.0426 32.9182 98.2556 32.5596C98.4686 32.201 98.5396 31.8424 98.5396 31.4121C98.5396 30.9818 98.4686 30.6232 98.2556 30.2646C98.0426 29.906 97.8296 29.6908 97.4747 29.4757C97.1197 29.2605 96.7647 29.1888 96.3387 29.1888C95.9128 29.1888 95.5578 29.2605 95.2028 29.4757C94.8479 29.6908 94.6349 29.906 94.4219 30.2646C94.2089 30.6232 94.1379 30.9818 94.1379 31.4121C94.1379 31.8424 94.2089 32.201 94.4219 32.5596C94.6349 32.9182 94.8479 33.1334 95.2028 33.3486C95.5578 33.5637 95.9128 33.6355 96.3387 33.6355ZM106.633 28.615V34.2809H105.852V29.3322H103.367L103.296 30.9818C103.296 31.7707 103.225 32.4162 103.083 32.9182C103.012 33.4203 102.799 33.7789 102.586 33.9941C102.373 34.2092 102.089 34.3527 101.734 34.3527C101.592 34.3527 101.379 34.3527 101.237 34.2809L101.308 33.5637C101.379 33.5637 101.45 33.5637 101.592 33.5637C101.805 33.5637 102.018 33.492 102.16 33.2768C102.302 33.0617 102.373 32.7748 102.444 32.4162C102.515 32.0576 102.586 31.5556 102.586 30.9101L102.657 28.5433H106.633V28.615ZM114.513 28.615V34.2809H113.732V29.3322H111.247L111.177 30.9818C111.177 31.7707 111.106 32.4162 110.964 32.9182C110.893 33.4203 110.68 33.7789 110.467 33.9941C110.254 34.2092 109.97 34.3527 109.615 34.3527C109.473 34.3527 109.26 34.3527 109.118 34.2809L109.189 33.5637C109.26 33.5637 109.331 33.5637 109.473 33.5637C109.686 33.5637 109.899 33.492 110.041 33.2768C110.183 33.0617 110.254 32.7748 110.325 32.4162C110.396 32.0576 110.467 31.5556 110.467 30.9101L110.538 28.5433H114.513V28.615ZM121.968 33.5637V34.2809H117.921V28.615H121.897V29.3322H118.702V31.0535H121.542V31.7707H118.702V33.6355H121.968V33.5637ZM130.203 33.5637V35.5002H129.422V34.2809H124.807V35.5002H124.026V33.5637H124.31C124.665 33.5637 124.878 33.2768 125.091 32.7031C125.233 32.1293 125.304 31.4121 125.375 30.408L125.446 28.615H129.422V33.5637H130.203ZM126.014 30.4798C126.014 31.2687 125.943 31.9142 125.801 32.4879C125.73 32.99 125.517 33.3486 125.304 33.5637H128.499V29.3322H126.014V30.4798ZM137.586 31.7707H136.521V34.2809H135.74V31.7707H134.676L133.114 34.2809H132.191L134.037 31.3404L132.262 28.615H133.114L134.605 31.0535H135.669V28.615H136.45V31.0535H137.515L139.006 28.615H139.858L138.154 31.3404L140 34.2809H139.077L137.586 31.7707Z" fill="black"/>
  </g>
  <defs>
    <clipPath id="clip_logo">
      <rect width="140" height="35" fill="white" transform="translate(0 0.5)"/>
    </clipPath>
  </defs>
</svg>
